<svg viewBox="0 0 200 200" xmlns="http://www.w3.org/2000/svg">
  <path fill="#F2F4F8" d="M34.6,-56C48.8,-51.7,67,-50.5,68.3,-41.6C69.7,-32.8,54.1,-16.4,52.7,-0.8C51.3,14.8,64.2,29.6,61,35.2C57.8,40.9,38.6,37.3,25.8,43.8C13,50.4,6.5,67.1,-3.5,73.3C-13.6,79.4,-27.1,74.9,-34,64.9C-40.9,54.9,-41.1,39.4,-41.2,27.6C-41.2,15.9,-41.2,7.9,-45.6,-2.5C-49.9,-13,-58.6,-25.9,-57.2,-35.3C-55.8,-44.7,-44.2,-50.6,-32.9,-56.6C-21.7,-62.7,-10.9,-69,-0.3,-68.4C10.2,-67.8,20.4,-60.4,34.6,-56Z" transform="translate(100 100)" />
</svg>